<svg class="rich-terminal" viewBox="0 0 1238 635.5999999999999" xmlns="http://www.w3.org/2000/svg">
    <!-- Generated with Rich https://www.textualize.io -->
    <style>

    @font-face {
        font-family: "Fira Code";
        src: local("FiraCode-Regular"),
                url("https://cdnjs.cloudflare.com/ajax/libs/firacode/6.2.0/woff2/FiraCode-Regular.woff2") format("woff2"),
                url("https://cdnjs.cloudflare.com/ajax/libs/firacode/6.2.0/woff/FiraCode-Regular.woff") format("woff");
        font-style: normal;
        font-weight: 400;
    }
    @font-face {
        font-family: "Fira Code";
        src: local("FiraCode-Bold"),
                url("https://cdnjs.cloudflare.com/ajax/libs/firacode/6.2.0/woff2/FiraCode-Bold.woff2") format("woff2"),
                url("https://cdnjs.cloudflare.com/ajax/libs/firacode/6.2.0/woff/FiraCode-Bold.woff") format("woff");
        font-style: bold;
        font-weight: 700;
    }

    .terminal-1250323066-matrix {
        font-family: Fira Code, monospace;
        font-size: 20px;
        line-height: 24.4px;
        font-variant-east-asian: full-width;
    }

    .terminal-1250323066-title {
        font-size: 18px;
        font-weight: bold;
        font-family: arial;
    }

    .terminal-1250323066-r1 { fill: #c5c8c6 }
.terminal-1250323066-r2 { fill: #121212 }
.terminal-1250323066-r3 { fill: #e3e3e3 }
.terminal-1250323066-r4 { fill: #fea62b;font-weight: bold }
.terminal-1250323066-r5 { fill: #e1e1e1 }
.terminal-1250323066-r6 { fill: #1f1f1f }
.terminal-1250323066-r7 { fill: #e3e4e5 }
.terminal-1250323066-r8 { fill: #14191f }
.terminal-1250323066-r9 { fill: #004578 }
.terminal-1250323066-r10 { fill: #262626 }
.terminal-1250323066-r11 { fill: #e2e2e2 }
.terminal-1250323066-r12 { fill: #e2e2e2;font-weight: bold;text-decoration: underline; }
.terminal-1250323066-r13 { fill: #e3e4e5;text-decoration: underline; }
.terminal-1250323066-r14 { fill: #e2e2e2;font-weight: bold }
.terminal-1250323066-r15 { fill: #7ae998 }
.terminal-1250323066-r16 { fill: #0a180e;font-weight: bold }
.terminal-1250323066-r17 { fill: #7c7f83 }
.terminal-1250323066-r18 { fill: #7c7f83;font-weight: bold }
.terminal-1250323066-r19 { fill: #008139 }
.terminal-1250323066-r20 { fill: #24292f }
.terminal-1250323066-r21 { fill: #a7a9ab }
.terminal-1250323066-r22 { fill: #dde8f3;font-weight: bold }
.terminal-1250323066-r23 { fill: #ddedf9 }
.terminal-1250323066-r24 { fill: #fef3e3;font-weight: bold }
.terminal-1250323066-r25 { fill: #ddeaf6 }
    </style>

    <defs>
    <clipPath id="terminal-1250323066-clip-terminal">
      <rect x="0" y="0" width="1219.0" height="584.5999999999999" />
    </clipPath>
    <clipPath id="terminal-1250323066-line-0">
    <rect x="0" y="1.5" width="1220" height="24.65"/>
            </clipPath>
<clipPath id="terminal-1250323066-line-1">
    <rect x="0" y="25.9" width="1220" height="24.65"/>
            </clipPath>
<clipPath id="terminal-1250323066-line-2">
    <rect x="0" y="50.3" width="1220" height="24.65"/>
            </clipPath>
<clipPath id="terminal-1250323066-line-3">
    <rect x="0" y="74.7" width="1220" height="24.65"/>
            </clipPath>
<clipPath id="terminal-1250323066-line-4">
    <rect x="0" y="99.1" width="1220" height="24.65"/>
            </clipPath>
<clipPath id="terminal-1250323066-line-5">
    <rect x="0" y="123.5" width="1220" height="24.65"/>
            </clipPath>
<clipPath id="terminal-1250323066-line-6">
    <rect x="0" y="147.9" width="1220" height="24.65"/>
            </clipPath>
<clipPath id="terminal-1250323066-line-7">
    <rect x="0" y="172.3" width="1220" height="24.65"/>
            </clipPath>
<clipPath id="terminal-1250323066-line-8">
    <rect x="0" y="196.7" width="1220" height="24.65"/>
            </clipPath>
<clipPath id="terminal-1250323066-line-9">
    <rect x="0" y="221.1" width="1220" height="24.65"/>
            </clipPath>
<clipPath id="terminal-1250323066-line-10">
    <rect x="0" y="245.5" width="1220" height="24.65"/>
            </clipPath>
<clipPath id="terminal-1250323066-line-11">
    <rect x="0" y="269.9" width="1220" height="24.65"/>
            </clipPath>
<clipPath id="terminal-1250323066-line-12">
    <rect x="0" y="294.3" width="1220" height="24.65"/>
            </clipPath>
<clipPath id="terminal-1250323066-line-13">
    <rect x="0" y="318.7" width="1220" height="24.65"/>
            </clipPath>
<clipPath id="terminal-1250323066-line-14">
    <rect x="0" y="343.1" width="1220" height="24.65"/>
            </clipPath>
<clipPath id="terminal-1250323066-line-15">
    <rect x="0" y="367.5" width="1220" height="24.65"/>
            </clipPath>
<clipPath id="terminal-1250323066-line-16">
    <rect x="0" y="391.9" width="1220" height="24.65"/>
            </clipPath>
<clipPath id="terminal-1250323066-line-17">
    <rect x="0" y="416.3" width="1220" height="24.65"/>
            </clipPath>
<clipPath id="terminal-1250323066-line-18">
    <rect x="0" y="440.7" width="1220" height="24.65"/>
            </clipPath>
<clipPath id="terminal-1250323066-line-19">
    <rect x="0" y="465.1" width="1220" height="24.65"/>
            </clipPath>
<clipPath id="terminal-1250323066-line-20">
    <rect x="0" y="489.5" width="1220" height="24.65"/>
            </clipPath>
<clipPath id="terminal-1250323066-line-21">
    <rect x="0" y="513.9" width="1220" height="24.65"/>
            </clipPath>
<clipPath id="terminal-1250323066-line-22">
    <rect x="0" y="538.3" width="1220" height="24.65"/>
            </clipPath>
    </defs>

    <rect fill="#292929" stroke="rgba(255,255,255,0.35)" stroke-width="1" x="1" y="1" width="1236" height="633.6" rx="8"/><text class="terminal-1250323066-title" fill="#c5c8c6" text-anchor="middle" x="618" y="27">Textual&#160;Demo</text>
            <g transform="translate(26,22)">
            <circle cx="0" cy="0" r="7" fill="#ff5f57"/>
            <circle cx="22" cy="0" r="7" fill="#febc2e"/>
            <circle cx="44" cy="0" r="7" fill="#28c840"/>
            </g>
        
    <g transform="translate(9, 41)" clip-path="url(#terminal-1250323066-clip-terminal)">
    <rect fill="#2c3137" x="0" y="1.5" width="97.6" height="24.65" shape-rendering="crispEdges"/><rect fill="#2c3137" x="97.6" y="1.5" width="378.2" height="24.65" shape-rendering="crispEdges"/><rect fill="#2c3137" x="475.8" y="1.5" width="12.2" height="24.65" shape-rendering="crispEdges"/><rect fill="#282828" x="488" y="1.5" width="610" height="24.65" shape-rendering="crispEdges"/><rect fill="#282828" x="1098" y="1.5" width="12.2" height="24.65" shape-rendering="crispEdges"/><rect fill="#282828" x="1110.2" y="1.5" width="0" height="24.65" shape-rendering="crispEdges"/><rect fill="#282828" x="1110.2" y="1.5" width="97.6" height="24.65" shape-rendering="crispEdges"/><rect fill="#282828" x="1207.8" y="1.5" width="12.2" height="24.65" shape-rendering="crispEdges"/><rect fill="#2c3137" x="0" y="25.9" width="97.6" height="24.65" shape-rendering="crispEdges"/><rect fill="#2c3137" x="97.6" y="25.9" width="378.2" height="24.65" shape-rendering="crispEdges"/><rect fill="#2c3137" x="475.8" y="25.9" width="12.2" height="24.65" shape-rendering="crispEdges"/><rect fill="#282828" x="488" y="25.9" width="36.6" height="24.65" shape-rendering="crispEdges"/><rect fill="#282828" x="524.6" y="25.9" width="146.4" height="24.65" shape-rendering="crispEdges"/><rect fill="#282828" x="671" y="25.9" width="427" height="24.65" shape-rendering="crispEdges"/><rect fill="#282828" x="1098" y="25.9" width="12.2" height="24.65" shape-rendering="crispEdges"/><rect fill="#282828" x="1110.2" y="25.9" width="97.6" height="24.65" shape-rendering="crispEdges"/><rect fill="#282828" x="1207.8" y="25.9" width="12.2" height="24.65" shape-rendering="crispEdges"/><rect fill="#2c3137" x="0" y="50.3" width="48.8" height="24.65" shape-rendering="crispEdges"/><rect fill="#2c3137" x="48.8" y="50.3" width="48.8" height="24.65" shape-rendering="crispEdges"/><rect fill="#2c3137" x="97.6" y="50.3" width="329.4" height="24.65" shape-rendering="crispEdges"/><rect fill="#2c3137" x="427" y="50.3" width="48.8" height="24.65" shape-rendering="crispEdges"/><rect fill="#2c3137" x="475.8" y="50.3" width="12.2" height="24.65" shape-rendering="crispEdges"/><rect fill="#282828" x="488" y="50.3" width="610" height="24.65" shape-rendering="crispEdges"/><rect fill="#282828" x="1098" y="50.3" width="12.2" height="24.65" shape-rendering="crispEdges"/><rect fill="#282828" x="1110.2" y="50.3" width="97.6" height="24.65" shape-rendering="crispEdges"/><rect fill="#282828" x="1207.8" y="50.3" width="12.2" height="24.65" shape-rendering="crispEdges"/><rect fill="#2c3137" x="0" y="74.7" width="366" height="24.65" shape-rendering="crispEdges"/><rect fill="#2c3137" x="366" y="74.7" width="109.8" height="24.65" shape-rendering="crispEdges"/><rect fill="#2c3137" x="475.8" y="74.7" width="12.2" height="24.65" shape-rendering="crispEdges"/><rect fill="#1e1e1e" x="488" y="74.7" width="707.6" height="24.65" shape-rendering="crispEdges"/><rect fill="#23568b" x="1195.6" y="74.7" width="24.4" height="24.65" shape-rendering="crispEdges"/><rect fill="#2c3137" x="0" y="99.1" width="12.2" height="24.65" shape-rendering="crispEdges"/><rect fill="#2c3137" x="12.2" y="99.1" width="353.8" height="24.65" shape-rendering="crispEdges"/><rect fill="#2c3137" x="366" y="99.1" width="109.8" height="24.65" shape-rendering="crispEdges"/><rect fill="#2c3137" x="475.8" y="99.1" width="12.2" height="24.65" shape-rendering="crispEdges"/><rect fill="#1e1e1e" x="488" y="99.1" width="707.6" height="24.65" shape-rendering="crispEdges"/><rect fill="#23568b" x="1195.6" y="99.1" width="24.4" height="24.65" shape-rendering="crispEdges"/><rect fill="#2c3137" x="0" y="123.5" width="12.2" height="24.65" shape-rendering="crispEdges"/><rect fill="#2c3137" x="12.2" y="123.5" width="353.8" height="24.65" shape-rendering="crispEdges"/><rect fill="#2c3137" x="366" y="123.5" width="97.6" height="24.65" shape-rendering="crispEdges"/><rect fill="#2c3137" x="463.6" y="123.5" width="12.2" height="24.65" shape-rendering="crispEdges"/><rect fill="#2c3137" x="475.8" y="123.5" width="12.2" height="24.65" shape-rendering="crispEdges"/><rect fill="#1e1e1e" x="488" y="123.5" width="707.6" height="24.65" shape-rendering="crispEdges"/><rect fill="#23568b" x="1195.6" y="123.5" width="24.4" height="24.65" shape-rendering="crispEdges"/><rect fill="#2c3137" x="0" y="147.9" width="12.2" height="24.65" shape-rendering="crispEdges"/><rect fill="#2c3137" x="12.2" y="147.9" width="353.8" height="24.65" shape-rendering="crispEdges"/><rect fill="#2c3137" x="366" y="147.9" width="24.4" height="24.65" shape-rendering="crispEdges"/><rect fill="#2c3137" x="390.4" y="147.9" width="12.2" height="24.65" shape-rendering="crispEdges"/><rect fill="#2c3137" x="402.6" y="147.9" width="61" height="24.65" shape-rendering="crispEdges"/><rect fill="#2c3137" x="463.6" y="147.9" width="12.2" height="24.65" shape-rendering="crispEdges"/><rect fill="#2c3137" x="475.8" y="147.9" width="12.2" height="24.65" shape-rendering="crispEdges"/><rect fill="#1e1e1e" x="488" y="147.9" width="671" height="24.65" shape-rendering="crispEdges"/><rect fill="#1e1e1e" x="1159" y="147.9" width="12.2" height="24.65" shape-rendering="crispEdges"/><rect fill="#1e1e1e" x="1171.2" y="147.9" width="24.4" height="24.65" shape-rendering="crispEdges"/><rect fill="#14191f" x="1195.6" y="147.9" width="24.4" height="24.65" shape-rendering="crispEdges"/><rect fill="#2c3137" x="0" y="172.3" width="12.2" height="24.65" shape-rendering="crispEdges"/><rect fill="#2c3137" x="12.2" y="172.3" width="353.8" height="24.65" shape-rendering="crispEdges"/><rect fill="#2c3137" x="366" y="172.3" width="24.4" height="24.65" shape-rendering="crispEdges"/><rect fill="#2c3137" x="390.4" y="172.3" width="73.2" height="24.65" shape-rendering="crispEdges"/><rect fill="#2c3137" x="463.6" y="172.3" width="12.2" height="24.65" shape-rendering="crispEdges"/><rect fill="#2c3137" x="475.8" y="172.3" width="12.2" height="24.65" shape-rendering="crispEdges"/><rect fill="#262626" x="488" y="172.3" width="671" height="24.65" shape-rendering="crispEdges"/><rect fill="#004578" x="1159" y="172.3" width="12.2" height="24.65" shape-rendering="crispEdges"/><rect fill="#1e1e1e" x="1171.2" y="172.3" width="24.4" height="24.65" shape-rendering="crispEdges"/><rect fill="#14191f" x="1195.6" y="172.3" width="24.4" height="24.65" shape-rendering="crispEdges"/><rect fill="#2c3137" x="0" y="196.7" width="12.2" height="24.65" shape-rendering="crispEdges"/><rect fill="#2c3137" x="12.2" y="196.7" width="353.8" height="24.65" shape-rendering="crispEdges"/><rect fill="#2c3137" x="366" y="196.7" width="24.4" height="24.65" shape-rendering="crispEdges"/><rect fill="#2c3137" x="390.4" y="196.7" width="36.6" height="24.65" shape-rendering="crispEdges"/><rect fill="#2c3137" x="427" y="196.7" width="12.2" height="24.65" shape-rendering="crispEdges"/><rect fill="#2c3137" x="439.2" y="196.7" width="24.4" height="24.65" shape-rendering="crispEdges"/><rect fill="#2c3137" x="463.6" y="196.7" width="12.2" height="24.65" shape-rendering="crispEdges"/><rect fill="#2c3137" x="475.8" y="196.7" width="12.2" height="24.65" shape-rendering="crispEdges"/><rect fill="#262626" x="488" y="196.7" width="646.6" height="24.65" shape-rendering="crispEdges"/><rect fill="#262626" x="1134.6" y="196.7" width="24.4" height="24.65" shape-rendering="crispEdges"/><rect fill="#004578" x="1159" y="196.7" width="12.2" height="24.65" shape-rendering="crispEdges"/><rect fill="#1e1e1e" x="1171.2" y="196.7" width="24.4" height="24.65" shape-rendering="crispEdges"/><rect fill="#14191f" x="1195.6" y="196.7" width="24.4" height="24.65" shape-rendering="crispEdges"/><rect fill="#2c3137" x="0" y="221.1" width="12.2" height="24.65" shape-rendering="crispEdges"/><rect fill="#2c3137" x="12.2" y="221.1" width="73.2" height="24.65" shape-rendering="crispEdges"/><rect fill="#2c3137" x="85.4" y="221.1" width="280.6" height="24.65" shape-rendering="crispEdges"/><rect fill="#2c3137" x="366" y="221.1" width="24.4" height="24.65" shape-rendering="crispEdges"/><rect fill="#2c3137" x="390.4" y="221.1" width="36.6" height="24.65" shape-rendering="crispEdges"/><rect fill="#2c3137" x="427" y="221.1" width="36.6" height="24.65" shape-rendering="crispEdges"/><rect fill="#2c3137" x="463.6" y="221.1" width="12.2" height="24.65" shape-rendering="crispEdges"/><rect fill="#2c3137" x="475.8" y="221.1" width="12.2" height="24.65" shape-rendering="crispEdges"/><rect fill="#262626" x="488" y="221.1" width="219.6" height="24.65" shape-rendering="crispEdges"/><rect fill="#262626" x="707.6" y="221.1" width="146.4" height="24.65" shape-rendering="crispEdges"/><rect fill="#262626" x="854" y="221.1" width="280.6" height="24.65" shape-rendering="crispEdges"/><rect fill="#262626" x="1134.6" y="221.1" width="24.4" height="24.65" shape-rendering="crispEdges"/><rect fill="#004578" x="1159" y="221.1" width="12.2" height="24.65" shape-rendering="crispEdges"/><rect fill="#1e1e1e" x="1171.2" y="221.1" width="24.4" height="24.65" shape-rendering="crispEdges"/><rect fill="#14191f" x="1195.6" y="221.1" width="24.4" height="24.65" shape-rendering="crispEdges"/><rect fill="#2c3137" x="0" y="245.5" width="12.2" height="24.65" shape-rendering="crispEdges"/><rect fill="#2c3137" x="12.2" y="245.5" width="353.8" height="24.65" shape-rendering="crispEdges"/><rect fill="#2c3137" x="366" y="245.5" width="24.4" height="24.65" shape-rendering="crispEdges"/><rect fill="#2c3137" x="390.4" y="245.5" width="36.6" height="24.65" shape-rendering="crispEdges"/><rect fill="#2c3137" x="427" y="245.5" width="36.6" height="24.65" shape-rendering="crispEdges"/><rect fill="#2c3137" x="463.6" y="245.5" width="12.2" height="24.65" shape-rendering="crispEdges"/><rect fill="#2c3137" x="475.8" y="245.5" width="12.2" height="24.65" shape-rendering="crispEdges"/><rect fill="#262626" x="488" y="245.5" width="646.6" height="24.65" shape-rendering="crispEdges"/><rect fill="#262626" x="1134.6" y="245.5" width="24.4" height="24.65" shape-rendering="crispEdges"/><rect fill="#004578" x="1159" y="245.5" width="12.2" height="24.65" shape-rendering="crispEdges"/><rect fill="#1e1e1e" x="1171.2" y="245.5" width="24.4" height="24.65" shape-rendering="crispEdges"/><rect fill="#14191f" x="1195.6" y="245.5" width="24.4" height="24.65" shape-rendering="crispEdges"/><rect fill="#2c3137" x="0" y="269.9" width="12.2" height="24.65" shape-rendering="crispEdges"/><rect fill="#2c3137" x="12.2" y="269.9" width="146.4" height="24.65" shape-rendering="crispEdges"/><rect fill="#2c3137" x="158.6" y="269.9" width="207.4" height="24.65" shape-rendering="crispEdges"/><rect fill="#2c3137" x="366" y="269.9" width="24.4" height="24.65" shape-rendering="crispEdges"/><rect fill="#2c3137" x="390.4" y="269.9" width="36.6" height="24.65" shape-rendering="crispEdges"/><rect fill="#2c3137" x="427" y="269.9" width="36.6" height="24.65" shape-rendering="crispEdges"/><rect fill="#2c3137" x="463.6" y="269.9" width="12.2" height="24.65" shape-rendering="crispEdges"/><rect fill="#2c3137" x="475.8" y="269.9" width="12.2" height="24.65" shape-rendering="crispEdges"/><rect fill="#262626" x="488" y="269.9" width="24.4" height="24.65" shape-rendering="crispEdges"/><rect fill="#262626" x="512.4" y="269.9" width="622.2" height="24.65" shape-rendering="crispEdges"/><rect fill="#262626" x="1134.6" y="269.9" width="24.4" height="24.65" shape-rendering="crispEdges"/><rect fill="#004578" x="1159" y="269.9" width="12.2" height="24.65" shape-rendering="crispEdges"/><rect fill="#1e1e1e" x="1171.2" y="269.9" width="24.4" height="24.65" shape-rendering="crispEdges"/><rect fill="#14191f" x="1195.6" y="269.9" width="24.4" height="24.65" shape-rendering="crispEdges"/><rect fill="#2c3137" x="0" y="294.3" width="12.2" height="24.65" shape-rendering="crispEdges"/><rect fill="#2c3137" x="12.2" y="294.3" width="353.8" height="24.65" shape-rendering="crispEdges"/><rect fill="#2c3137" x="366" y="294.3" width="24.4" height="24.65" shape-rendering="crispEdges"/><rect fill="#2c3137" x="390.4" y="294.3" width="36.6" height="24.65" shape-rendering="crispEdges"/><rect fill="#2c3137" x="427" y="294.3" width="36.6" height="24.65" shape-rendering="crispEdges"/><rect fill="#2c3137" x="463.6" y="294.3" width="12.2" height="24.65" shape-rendering="crispEdges"/><rect fill="#2c3137" x="475.8" y="294.3" width="12.2" height="24.65" shape-rendering="crispEdges"/><rect fill="#262626" x="488" y="294.3" width="646.6" height="24.65" shape-rendering="crispEdges"/><rect fill="#262626" x="1134.6" y="294.3" width="24.4" height="24.65" shape-rendering="crispEdges"/><rect fill="#004578" x="1159" y="294.3" width="12.2" height="24.65" shape-rendering="crispEdges"/><rect fill="#1e1e1e" x="1171.2" y="294.3" width="24.4" height="24.65" shape-rendering="crispEdges"/><rect fill="#14191f" x="1195.6" y="294.3" width="24.4" height="24.65" shape-rendering="crispEdges"/><rect fill="#2c3137" x="0" y="318.7" width="12.2" height="24.65" shape-rendering="crispEdges"/><rect fill="#2c3137" x="12.2" y="318.7" width="305" height="24.65" shape-rendering="crispEdges"/><rect fill="#2c3137" x="317.2" y="318.7" width="48.8" height="24.65" shape-rendering="crispEdges"/><rect fill="#2c3137" x="366" y="318.7" width="24.4" height="24.65" shape-rendering="crispEdges"/><rect fill="#2c3137" x="390.4" y="318.7" width="73.2" height="24.65" shape-rendering="crispEdges"/><rect fill="#2c3137" x="463.6" y="318.7" width="12.2" height="24.65" shape-rendering="crispEdges"/><rect fill="#2c3137" x="475.8" y="318.7" width="12.2" height="24.65" shape-rendering="crispEdges"/><rect fill="#262626" x="488" y="318.7" width="646.6" height="24.65" shape-rendering="crispEdges"/><rect fill="#262626" x="1134.6" y="318.7" width="24.4" height="24.65" shape-rendering="crispEdges"/><rect fill="#004578" x="1159" y="318.7" width="12.2" height="24.65" shape-rendering="crispEdges"/><rect fill="#1e1e1e" x="1171.2" y="318.7" width="24.4" height="24.65" shape-rendering="crispEdges"/><rect fill="#14191f" x="1195.6" y="318.7" width="24.4" height="24.65" shape-rendering="crispEdges"/><rect fill="#2c3137" x="0" y="343.1" width="12.2" height="24.65" shape-rendering="crispEdges"/><rect fill="#2c3137" x="12.2" y="343.1" width="353.8" height="24.65" shape-rendering="crispEdges"/><rect fill="#2c3137" x="366" y="343.1" width="24.4" height="24.65" shape-rendering="crispEdges"/><rect fill="#2c3137" x="390.4" y="343.1" width="36.6" height="24.65" shape-rendering="crispEdges"/><rect fill="#2c3137" x="427" y="343.1" width="36.6" height="24.65" shape-rendering="crispEdges"/><rect fill="#2c3137" x="463.6" y="343.1" width="12.2" height="24.65" shape-rendering="crispEdges"/><rect fill="#2c3137" x="475.8" y="343.1" width="12.2" height="24.65" shape-rendering="crispEdges"/><rect fill="#4ebf71" x="488" y="343.1" width="646.6" height="24.65" shape-rendering="crispEdges"/><rect fill="#262626" x="1134.6" y="343.1" width="24.4" height="24.65" shape-rendering="crispEdges"/><rect fill="#004578" x="1159" y="343.1" width="12.2" height="24.65" shape-rendering="crispEdges"/><rect fill="#1e1e1e" x="1171.2" y="343.1" width="24.4" height="24.65" shape-rendering="crispEdges"/><rect fill="#14191f" x="1195.6" y="343.1" width="24.4" height="24.65" shape-rendering="crispEdges"/><rect fill="#2c3137" x="0" y="367.5" width="12.2" height="24.65" shape-rendering="crispEdges"/><rect fill="#2c3137" x="12.2" y="367.5" width="353.8" height="24.65" shape-rendering="crispEdges"/><rect fill="#2c3137" x="366" y="367.5" width="24.4" height="24.65" shape-rendering="crispEdges"/><rect fill="#2c3137" x="390.4" y="367.5" width="36.6" height="24.65" shape-rendering="crispEdges"/><rect fill="#2c3137" x="427" y="367.5" width="36.6" height="24.65" shape-rendering="crispEdges"/><rect fill="#2c3137" x="463.6" y="367.5" width="12.2" height="24.65" shape-rendering="crispEdges"/><rect fill="#2c3137" x="475.8" y="367.5" width="12.2" height="24.65" shape-rendering="crispEdges"/><rect fill="#4ebf71" x="488" y="367.5" width="244" height="24.65" shape-rendering="crispEdges"/><rect fill="#4ebf71" x="732" y="367.5" width="12.2" height="24.65" shape-rendering="crispEdges"/><rect fill="#4ebf71" x="744.2" y="367.5" width="61" height="24.65" shape-rendering="crispEdges"/><rect fill="#4ebf71" x="805.2" y="367.5" width="12.2" height="24.65" shape-rendering="crispEdges"/><rect fill="#4ebf71" x="817.4" y="367.5" width="317.2" height="24.65" shape-rendering="crispEdges"/><rect fill="#262626" x="1134.6" y="367.5" width="24.4" height="24.65" shape-rendering="crispEdges"/><rect fill="#004578" x="1159" y="367.5" width="12.2" height="24.65" shape-rendering="crispEdges"/><rect fill="#1e1e1e" x="1171.2" y="367.5" width="24.4" height="24.65" shape-rendering="crispEdges"/><rect fill="#14191f" x="1195.6" y="367.5" width="24.4" height="24.65" shape-rendering="crispEdges"/><rect fill="#2c3137" x="0" y="391.9" width="12.2" height="24.65" shape-rendering="crispEdges"/><rect fill="#2c3137" x="12.2" y="391.9" width="183" height="24.65" shape-rendering="crispEdges"/><rect fill="#2c3137" x="195.2" y="391.9" width="85.4" height="24.65" shape-rendering="crispEdges"/><rect fill="#2c3137" x="280.6" y="391.9" width="85.4" height="24.65" shape-rendering="crispEdges"/><rect fill="#2c3137" x="366" y="391.9" width="24.4" height="24.65" shape-rendering="crispEdges"/><rect fill="#2c3137" x="390.4" y="391.9" width="36.6" height="24.65" shape-rendering="crispEdges"/><rect fill="#2c3137" x="427" y="391.9" width="36.6" height="24.65" shape-rendering="crispEdges"/><rect fill="#2c3137" x="463.6" y="391.9" width="12.2" height="24.65" shape-rendering="crispEdges"/><rect fill="#2c3137" x="475.8" y="391.9" width="12.2" height="24.65" shape-rendering="crispEdges"/><rect fill="#4ebf71" x="488" y="391.9" width="646.6" height="24.65" shape-rendering="crispEdges"/><rect fill="#262626" x="1134.6" y="391.9" width="24.4" height="24.65" shape-rendering="crispEdges"/><rect fill="#004578" x="1159" y="391.9" width="12.2" height="24.65" shape-rendering="crispEdges"/><rect fill="#1e1e1e" x="1171.2" y="391.9" width="24.4" height="24.65" shape-rendering="crispEdges"/><rect fill="#14191f" x="1195.6" y="391.9" width="24.4" height="24.65" shape-rendering="crispEdges"/><rect fill="#2c3137" x="0" y="416.3" width="12.2" height="24.65" shape-rendering="crispEdges"/><rect fill="#2c3137" x="12.2" y="416.3" width="353.8" height="24.65" shape-rendering="crispEdges"/><rect fill="#2c3137" x="366" y="416.3" width="24.4" height="24.65" shape-rendering="crispEdges"/><rect fill="#2c3137" x="390.4" y="416.3" width="73.2" height="24.65" shape-rendering="crispEdges"/><rect fill="#2c3137" x="463.6" y="416.3" width="12.2" height="24.65" shape-rendering="crispEdges"/><rect fill="#2c3137" x="475.8" y="416.3" width="12.2" height="24.65" shape-rendering="crispEdges"/><rect fill="#262626" x="488" y="416.3" width="671" height="24.65" shape-rendering="crispEdges"/><rect fill="#004578" x="1159" y="416.3" width="12.2" height="24.65" shape-rendering="crispEdges"/><rect fill="#1e1e1e" x="1171.2" y="416.3" width="24.4" height="24.65" shape-rendering="crispEdges"/><rect fill="#14191f" x="1195.6" y="416.3" width="24.4" height="24.65" shape-rendering="crispEdges"/><rect fill="#24292f" x="0" y="440.7" width="12.2" height="24.65" shape-rendering="crispEdges"/><rect fill="#24292f" x="12.2" y="440.7" width="353.8" height="24.65" shape-rendering="crispEdges"/><rect fill="#24292f" x="366" y="440.7" width="24.4" height="24.65" shape-rendering="crispEdges"/><rect fill="#24292f" x="390.4" y="440.7" width="85.4" height="24.65" shape-rendering="crispEdges"/><rect fill="#24292f" x="475.8" y="440.7" width="12.2" height="24.65" shape-rendering="crispEdges"/><rect fill="#1e1e1e" x="488" y="440.7" width="671" height="24.65" shape-rendering="crispEdges"/><rect fill="#1e1e1e" x="1159" y="440.7" width="12.2" height="24.65" shape-rendering="crispEdges"/><rect fill="#1e1e1e" x="1171.2" y="440.7" width="24.4" height="24.65" shape-rendering="crispEdges"/><rect fill="#14191f" x="1195.6" y="440.7" width="24.4" height="24.65" shape-rendering="crispEdges"/><rect fill="#24292f" x="0" y="465.1" width="12.2" height="24.65" shape-rendering="crispEdges"/><rect fill="#24292f" x="12.2" y="465.1" width="12.2" height="24.65" shape-rendering="crispEdges"/><rect fill="#2c3137" x="24.4" y="465.1" width="97.6" height="24.65" shape-rendering="crispEdges"/><rect fill="#24292f" x="122" y="465.1" width="12.2" height="24.65" shape-rendering="crispEdges"/><rect fill="#24292f" x="134.2" y="465.1" width="231.8" height="24.65" shape-rendering="crispEdges"/><rect fill="#24292f" x="366" y="465.1" width="97.6" height="24.65" shape-rendering="crispEdges"/><rect fill="#24292f" x="463.6" y="465.1" width="12.2" height="24.65" shape-rendering="crispEdges"/><rect fill="#24292f" x="475.8" y="465.1" width="12.2" height="24.65" shape-rendering="crispEdges"/><rect fill="#1e1e1e" x="488" y="465.1" width="707.6" height="24.65" shape-rendering="crispEdges"/><rect fill="#14191f" x="1195.6" y="465.1" width="24.4" height="24.65" shape-rendering="crispEdges"/><rect fill="#24292f" x="0" y="489.5" width="12.2" height="24.65" shape-rendering="crispEdges"/><rect fill="#24292f" x="12.2" y="489.5" width="12.2" height="24.65" shape-rendering="crispEdges"/><rect fill="#2c3137" x="24.4" y="489.5" width="24.4" height="24.65" shape-rendering="crispEdges"/><rect fill="#00050f" x="48.8" y="489.5" width="12.2" height="24.65" shape-rendering="crispEdges"/><rect fill="#00050f" x="61" y="489.5" width="12.2" height="24.65" shape-rendering="crispEdges"/><rect fill="#4ebf71" x="73.2" y="489.5" width="12.2" height="24.65" shape-rendering="crispEdges"/><rect fill="#4ebf71" x="85.4" y="489.5" width="12.2" height="24.65" shape-rendering="crispEdges"/><rect fill="#2c3137" x="97.6" y="489.5" width="24.4" height="24.65" shape-rendering="crispEdges"/><rect fill="#24292f" x="122" y="489.5" width="12.2" height="24.65" shape-rendering="crispEdges"/><rect fill="#24292f" x="134.2" y="489.5" width="24.4" height="24.65" shape-rendering="crispEdges"/><rect fill="#24292f" x="158.6" y="489.5" width="195.2" height="24.65" shape-rendering="crispEdges"/><rect fill="#24292f" x="353.8" y="489.5" width="12.2" height="24.65" shape-rendering="crispEdges"/><rect fill="#24292f" x="366" y="489.5" width="73.2" height="24.65" shape-rendering="crispEdges"/><rect fill="#24292f" x="439.2" y="489.5" width="24.4" height="24.65" shape-rendering="crispEdges"/><rect fill="#24292f" x="463.6" y="489.5" width="12.2" height="24.65" shape-rendering="crispEdges"/><rect fill="#24292f" x="475.8" y="489.5" width="12.2" height="24.65" shape-rendering="crispEdges"/><rect fill="#1e1e1e" x="488" y="489.5" width="707.6" height="24.65" shape-rendering="crispEdges"/><rect fill="#14191f" x="1195.6" y="489.5" width="24.4" height="24.65" shape-rendering="crispEdges"/><rect fill="#24292f" x="0" y="513.9" width="12.2" height="24.65" shape-rendering="crispEdges"/><rect fill="#24292f" x="12.2" y="513.9" width="12.2" height="24.65" shape-rendering="crispEdges"/><rect fill="#2c3137" x="24.4" y="513.9" width="97.6" height="24.65" shape-rendering="crispEdges"/><rect fill="#24292f" x="122" y="513.9" width="12.2" height="24.65" shape-rendering="crispEdges"/><rect fill="#24292f" x="134.2" y="513.9" width="231.8" height="24.65" shape-rendering="crispEdges"/><rect fill="#24292f" x="366" y="513.9" width="97.6" height="24.65" shape-rendering="crispEdges"/><rect fill="#24292f" x="463.6" y="513.9" width="12.2" height="24.65" shape-rendering="crispEdges"/><rect fill="#24292f" x="475.8" y="513.9" width="12.2" height="24.65" shape-rendering="crispEdges"/><rect fill="#1e1e1e" x="488" y="513.9" width="707.6" height="24.65" shape-rendering="crispEdges"/><rect fill="#14191f" x="1195.6" y="513.9" width="24.4" height="24.65" shape-rendering="crispEdges"/><rect fill="#24292f" x="0" y="538.3" width="366" height="24.65" shape-rendering="crispEdges"/><rect fill="#24292f" x="366" y="538.3" width="109.8" height="24.65" shape-rendering="crispEdges"/><rect fill="#24292f" x="475.8" y="538.3" width="12.2" height="24.65" shape-rendering="crispEdges"/><rect fill="#1e1e1e" x="488" y="538.3" width="707.6" height="24.65" shape-rendering="crispEdges"/><rect fill="#14191f" x="1195.6" y="538.3" width="24.4" height="24.65" shape-rendering="crispEdges"/><rect fill="#0053aa" x="0" y="562.7" width="97.6" height="24.65" shape-rendering="crispEdges"/><rect fill="#0178d4" x="97.6" y="562.7" width="109.8" height="24.65" shape-rendering="crispEdges"/><rect fill="#0053aa" x="207.4" y="562.7" width="97.6" height="24.65" shape-rendering="crispEdges"/><rect fill="#0178d4" x="305" y="562.7" width="219.6" height="24.65" shape-rendering="crispEdges"/><rect fill="#fea62b" x="524.6" y="562.7" width="97.6" height="24.65" shape-rendering="crispEdges"/><rect fill="#0065be" x="622.2" y="562.7" width="146.4" height="24.65" shape-rendering="crispEdges"/><rect fill="#0053aa" x="768.6" y="562.7" width="48.8" height="24.65" shape-rendering="crispEdges"/><rect fill="#0178d4" x="817.4" y="562.7" width="85.4" height="24.65" shape-rendering="crispEdges"/><rect fill="#0053aa" x="902.8" y="562.7" width="97.6" height="24.65" shape-rendering="crispEdges"/><rect fill="#0178d4" x="1000.4" y="562.7" width="73.2" height="24.65" shape-rendering="crispEdges"/><rect fill="#0178d4" x="1073.6" y="562.7" width="146.4" height="24.65" shape-rendering="crispEdges"/>
    <g class="terminal-1250323066-matrix">
    <text class="terminal-1250323066-r2" x="475.8" y="20" textLength="12.2" clip-path="url(#terminal-1250323066-line-0)">▕</text><text class="terminal-1250323066-r1" x="1220" y="20" textLength="12.2" clip-path="url(#terminal-1250323066-line-0)">
</text><text class="terminal-1250323066-r2" x="475.8" y="44.4" textLength="12.2" clip-path="url(#terminal-1250323066-line-1)">▕</text><text class="terminal-1250323066-r3" x="524.6" y="44.4" textLength="146.4" clip-path="url(#terminal-1250323066-line-1)">Textual&#160;Demo</text><text class="terminal-1250323066-r1" x="1220" y="44.4" textLength="12.2" clip-path="url(#terminal-1250323066-line-1)">
</text><text class="terminal-1250323066-r4" x="97.6" y="68.8" textLength="329.4" clip-path="url(#terminal-1250323066-line-2)">&#160;&#160;&#160;&#160;&#160;Textual&#160;Demo&#160;&#160;&#160;&#160;&#160;&#160;&#160;&#160;&#160;&#160;</text><text class="terminal-1250323066-r2" x="475.8" y="68.8" textLength="12.2" clip-path="url(#terminal-1250323066-line-2)">▕</text><text class="terminal-1250323066-r1" x="1220" y="68.8" textLength="12.2" clip-path="url(#terminal-1250323066-line-2)">
</text><text class="terminal-1250323066-r2" x="475.8" y="93.2" textLength="12.2" clip-path="url(#terminal-1250323066-line-3)">▕</text><text class="terminal-1250323066-r1" x="1220" y="93.2" textLength="12.2" clip-path="url(#terminal-1250323066-line-3)">
</text><text class="terminal-1250323066-r2" x="475.8" y="117.6" textLength="12.2" clip-path="url(#terminal-1250323066-line-4)">▕</text><text class="terminal-1250323066-r1" x="1220" y="117.6" textLength="12.2" clip-path="url(#terminal-1250323066-line-4)">
</text><text class="terminal-1250323066-r2" x="475.8" y="142" textLength="12.2" clip-path="url(#terminal-1250323066-line-5)">▕</text><text class="terminal-1250323066-r8" x="1195.6" y="142" textLength="24.4" clip-path="url(#terminal-1250323066-line-5)">▅▅</text><text class="terminal-1250323066-r1" x="1220" y="142" textLength="12.2" clip-path="url(#terminal-1250323066-line-5)">
</text><text class="terminal-1250323066-r7" x="12.2" y="166.4" textLength="353.8" clip-path="url(#terminal-1250323066-line-6)">We&#160;hope&#160;you&#160;enjoy&#160;using&#160;Textu</text><text class="terminal-1250323066-r7" x="366" y="166.4" textLength="24.4" clip-path="url(#terminal-1250323066-line-6)">al</text><text class="terminal-1250323066-r7" x="390.4" y="166.4" textLength="12.2" clip-path="url(#terminal-1250323066-line-6)">.</text><text class="terminal-1250323066-r2" x="475.8" y="166.4" textLength="12.2" clip-path="url(#terminal-1250323066-line-6)">▕</text><text class="terminal-1250323066-r9" x="488" y="166.4" textLength="671" clip-path="url(#terminal-1250323066-line-6)">▁▁▁▁▁▁▁▁▁▁▁▁▁▁▁▁▁▁▁▁▁▁▁▁▁▁▁▁▁▁▁▁▁▁▁▁▁▁▁▁▁▁▁▁▁▁▁▁▁▁▁▁▁▁▁</text><text class="terminal-1250323066-r9" x="1159" y="166.4" textLength="12.2" clip-path="url(#terminal-1250323066-line-6)">▁</text><text class="terminal-1250323066-r1" x="1220" y="166.4" textLength="12.2" clip-path="url(#terminal-1250323066-line-6)">
</text><text class="terminal-1250323066-r2" x="475.8" y="190.8" textLength="12.2" clip-path="url(#terminal-1250323066-line-7)">▕</text><text class="terminal-1250323066-r10" x="1159" y="190.8" textLength="12.2" clip-path="url(#terminal-1250323066-line-7)">▊</text><text class="terminal-1250323066-r1" x="1220" y="190.8" textLength="12.2" clip-path="url(#terminal-1250323066-line-7)">
</text><text class="terminal-1250323066-r7" x="12.2" y="215.2" textLength="353.8" clip-path="url(#terminal-1250323066-line-8)">Here&#160;are&#160;some&#160;links.&#160;You&#160;can&#160;</text><text class="terminal-1250323066-r7" x="366" y="215.2" textLength="24.4" clip-path="url(#terminal-1250323066-line-8)">cl</text><text class="terminal-1250323066-r7" x="390.4" y="215.2" textLength="36.6" clip-path="url(#terminal-1250323066-line-8)">ick</text><text class="terminal-1250323066-r2" x="475.8" y="215.2" textLength="12.2" clip-path="url(#terminal-1250323066-line-8)">▕</text><text class="terminal-1250323066-r10" x="1159" y="215.2" textLength="12.2" clip-path="url(#terminal-1250323066-line-8)">▊</text><text class="terminal-1250323066-r1" x="1220" y="215.2" textLength="12.2" clip-path="url(#terminal-1250323066-line-8)">
</text><text class="terminal-1250323066-r7" x="12.2" y="239.6" textLength="73.2" clip-path="url(#terminal-1250323066-line-9)">these!</text><text class="terminal-1250323066-r2" x="475.8" y="239.6" textLength="12.2" clip-path="url(#terminal-1250323066-line-9)">▕</text><text class="terminal-1250323066-r12" x="707.6" y="239.6" textLength="146.4" clip-path="url(#terminal-1250323066-line-9)">Textual&#160;Demo</text><text class="terminal-1250323066-r10" x="1159" y="239.6" textLength="12.2" clip-path="url(#terminal-1250323066-line-9)">▊</text><text class="terminal-1250323066-r1" x="1220" y="239.6" textLength="12.2" clip-path="url(#terminal-1250323066-line-9)">
</text><text class="terminal-1250323066-r2" x="475.8" y="264" textLength="12.2" clip-path="url(#terminal-1250323066-line-10)">▕</text><text class="terminal-1250323066-r10" x="1159" y="264" textLength="12.2" clip-path="url(#terminal-1250323066-line-10)">▊</text><text class="terminal-1250323066-r1" x="1220" y="264" textLength="12.2" clip-path="url(#terminal-1250323066-line-10)">
</text><text class="terminal-1250323066-r13" x="12.2" y="288.4" textLength="146.4" clip-path="url(#terminal-1250323066-line-11)">Textual&#160;Docs</text><text class="terminal-1250323066-r2" x="475.8" y="288.4" textLength="12.2" clip-path="url(#terminal-1250323066-line-11)">▕</text><text class="terminal-1250323066-r14" x="488" y="288.4" textLength="24.4" clip-path="url(#terminal-1250323066-line-11)">me</text><text class="terminal-1250323066-r11" x="512.4" y="288.4" textLength="622.2" clip-path="url(#terminal-1250323066-line-11)">!&#160;Textual&#160;is&#160;a&#160;framework&#160;for&#160;creating&#160;sophisticated</text><text class="terminal-1250323066-r10" x="1159" y="288.4" textLength="12.2" clip-path="url(#terminal-1250323066-line-11)">▊</text><text class="terminal-1250323066-r1" x="1220" y="288.4" textLength="12.2" clip-path="url(#terminal-1250323066-line-11)">
</text><text class="terminal-1250323066-r2" x="475.8" y="312.8" textLength="12.2" clip-path="url(#terminal-1250323066-line-12)">▕</text><text class="terminal-1250323066-r11" x="488" y="312.8" textLength="646.6" clip-path="url(#terminal-1250323066-line-12)">cations&#160;with&#160;the&#160;terminal.&#160;&#160;&#160;&#160;&#160;&#160;&#160;&#160;&#160;&#160;&#160;&#160;&#160;&#160;&#160;&#160;&#160;&#160;&#160;&#160;&#160;&#160;&#160;&#160;&#160;&#160;&#160;</text><text class="terminal-1250323066-r10" x="1159" y="312.8" textLength="12.2" clip-path="url(#terminal-1250323066-line-12)">▊</text><text class="terminal-1250323066-r1" x="1220" y="312.8" textLength="12.2" clip-path="url(#terminal-1250323066-line-12)">
</text><text class="terminal-1250323066-r13" x="12.2" y="337.2" textLength="305" clip-path="url(#terminal-1250323066-line-13)">Textual&#160;GitHub&#160;Repository</text><text class="terminal-1250323066-r2" x="475.8" y="337.2" textLength="12.2" clip-path="url(#terminal-1250323066-line-13)">▕</text><text class="terminal-1250323066-r10" x="1159" y="337.2" textLength="12.2" clip-path="url(#terminal-1250323066-line-13)">▊</text><text class="terminal-1250323066-r1" x="1220" y="337.2" textLength="12.2" clip-path="url(#terminal-1250323066-line-13)">
</text><text class="terminal-1250323066-r2" x="475.8" y="361.6" textLength="12.2" clip-path="url(#terminal-1250323066-line-14)">▕</text><text class="terminal-1250323066-r15" x="488" y="361.6" textLength="646.6" clip-path="url(#terminal-1250323066-line-14)">▔▔▔▔▔▔▔▔▔▔▔▔▔▔▔▔▔▔▔▔▔▔▔▔▔▔▔▔▔▔▔▔▔▔▔▔▔▔▔▔▔▔▔▔▔▔▔▔▔▔▔▔▔</text><text class="terminal-1250323066-r10" x="1159" y="361.6" textLength="12.2" clip-path="url(#terminal-1250323066-line-14)">▊</text><text class="terminal-1250323066-r1" x="1220" y="361.6" textLength="12.2" clip-path="url(#terminal-1250323066-line-14)">
</text><text class="terminal-1250323066-r2" x="475.8" y="386" textLength="12.2" clip-path="url(#terminal-1250323066-line-15)">▕</text><text class="terminal-1250323066-r16" x="744.2" y="386" textLength="61" clip-path="url(#terminal-1250323066-line-15)">Start</text><text class="terminal-1250323066-r10" x="1159" y="386" textLength="12.2" clip-path="url(#terminal-1250323066-line-15)">▊</text><text class="terminal-1250323066-r1" x="1220" y="386" textLength="12.2" clip-path="url(#terminal-1250323066-line-15)">
</text><text class="terminal-1250323066-r18" x="195.2" y="410.4" textLength="85.4" clip-path="url(#terminal-1250323066-line-16)">v0.61.1</text><text class="terminal-1250323066-r2" x="475.8" y="410.4" textLength="12.2" clip-path="url(#terminal-1250323066-line-16)">▕</text><text class="terminal-1250323066-r19" x="488" y="410.4" textLength="646.6" clip-path="url(#terminal-1250323066-line-16)">▁▁▁▁▁▁▁▁▁▁▁▁▁▁▁▁▁▁▁▁▁▁▁▁▁▁▁▁▁▁▁▁▁▁▁▁▁▁▁▁▁▁▁▁▁▁▁▁▁▁▁▁▁</text><text class="terminal-1250323066-r10" x="1159" y="410.4" textLength="12.2" clip-path="url(#terminal-1250323066-line-16)">▊</text><text class="terminal-1250323066-r1" x="1220" y="410.4" textLength="12.2" clip-path="url(#terminal-1250323066-line-16)">
</text><text class="terminal-1250323066-r2" x="475.8" y="434.8" textLength="12.2" clip-path="url(#terminal-1250323066-line-17)">▕</text><text class="terminal-1250323066-r10" x="1159" y="434.8" textLength="12.2" clip-path="url(#terminal-1250323066-line-17)">▊</text><text class="terminal-1250323066-r1" x="1220" y="434.8" textLength="12.2" clip-path="url(#terminal-1250323066-line-17)">
</text><text class="terminal-1250323066-r2" x="475.8" y="459.2" textLength="12.2" clip-path="url(#terminal-1250323066-line-18)">▕</text><text class="terminal-1250323066-r9" x="488" y="459.2" textLength="671" clip-path="url(#terminal-1250323066-line-18)">▔▔▔▔▔▔▔▔▔▔▔▔▔▔▔▔▔▔▔▔▔▔▔▔▔▔▔▔▔▔▔▔▔▔▔▔▔▔▔▔▔▔▔▔▔▔▔▔▔▔▔▔▔▔▔</text><text class="terminal-1250323066-r9" x="1159" y="459.2" textLength="12.2" clip-path="url(#terminal-1250323066-line-18)">▔</text><text class="terminal-1250323066-r1" x="1220" y="459.2" textLength="12.2" clip-path="url(#terminal-1250323066-line-18)">
</text><text class="terminal-1250323066-r20" x="12.2" y="483.6" textLength="12.2" clip-path="url(#terminal-1250323066-line-19)">▊</text><text class="terminal-1250323066-r20" x="24.4" y="483.6" textLength="97.6" clip-path="url(#terminal-1250323066-line-19)">▔▔▔▔▔▔▔▔</text><text class="terminal-1250323066-r20" x="122" y="483.6" textLength="12.2" clip-path="url(#terminal-1250323066-line-19)">▎</text><text class="terminal-1250323066-r2" x="475.8" y="483.6" textLength="12.2" clip-path="url(#terminal-1250323066-line-19)">▕</text><text class="terminal-1250323066-r1" x="1220" y="483.6" textLength="12.2" clip-path="url(#terminal-1250323066-line-19)">
</text><text class="terminal-1250323066-r20" x="12.2" y="508" textLength="12.2" clip-path="url(#terminal-1250323066-line-20)">▊</text><text class="terminal-1250323066-r20" x="122" y="508" textLength="12.2" clip-path="url(#terminal-1250323066-line-20)">▎</text><text class="terminal-1250323066-r21" x="158.6" y="508" textLength="195.2" clip-path="url(#terminal-1250323066-line-20)">Dark&#160;mode&#160;toggle</text><text class="terminal-1250323066-r2" x="475.8" y="508" textLength="12.2" clip-path="url(#terminal-1250323066-line-20)">▕</text><text class="terminal-1250323066-r1" x="1220" y="508" textLength="12.2" clip-path="url(#terminal-1250323066-line-20)">
</text><text class="terminal-1250323066-r20" x="12.2" y="532.4" textLength="12.2" clip-path="url(#terminal-1250323066-line-21)">▊</text><text class="terminal-1250323066-r20" x="24.4" y="532.4" textLength="97.6" clip-path="url(#terminal-1250323066-line-21)">▁▁▁▁▁▁▁▁</text><text class="terminal-1250323066-r20" x="122" y="532.4" textLength="12.2" clip-path="url(#terminal-1250323066-line-21)">▎</text><text class="terminal-1250323066-r2" x="475.8" y="532.4" textLength="12.2" clip-path="url(#terminal-1250323066-line-21)">▕</text><text class="terminal-1250323066-r1" x="1220" y="532.4" textLength="12.2" clip-path="url(#terminal-1250323066-line-21)">
</text><text class="terminal-1250323066-r2" x="475.8" y="556.8" textLength="12.2" clip-path="url(#terminal-1250323066-line-22)">▕</text><text class="terminal-1250323066-r1" x="1220" y="556.8" textLength="12.2" clip-path="url(#terminal-1250323066-line-22)">
</text><text class="terminal-1250323066-r22" x="0" y="581.2" textLength="97.6" clip-path="url(#terminal-1250323066-line-23)">&#160;CTRL+B&#160;</text><text class="terminal-1250323066-r23" x="97.6" y="581.2" textLength="109.8" clip-path="url(#terminal-1250323066-line-23)">&#160;Sidebar&#160;</text><text class="terminal-1250323066-r22" x="207.4" y="581.2" textLength="97.6" clip-path="url(#terminal-1250323066-line-23)">&#160;CTRL+T&#160;</text><text class="terminal-1250323066-r23" x="305" y="581.2" textLength="219.6" clip-path="url(#terminal-1250323066-line-23)">&#160;Toggle&#160;Dark&#160;mode&#160;</text><text class="terminal-1250323066-r24" x="524.6" y="581.2" textLength="97.6" clip-path="url(#terminal-1250323066-line-23)">&#160;CTRL+S&#160;</text><text class="terminal-1250323066-r25" x="622.2" y="581.2" textLength="146.4" clip-path="url(#terminal-1250323066-line-23)">&#160;Screenshot&#160;</text><text class="terminal-1250323066-r22" x="768.6" y="581.2" textLength="48.8" clip-path="url(#terminal-1250323066-line-23)">&#160;F1&#160;</text><text class="terminal-1250323066-r23" x="817.4" y="581.2" textLength="85.4" clip-path="url(#terminal-1250323066-line-23)">&#160;Notes&#160;</text><text class="terminal-1250323066-r22" x="902.8" y="581.2" textLength="97.6" clip-path="url(#terminal-1250323066-line-23)">&#160;CTRL+Q&#160;</text><text class="terminal-1250323066-r23" x="1000.4" y="581.2" textLength="73.2" clip-path="url(#terminal-1250323066-line-23)">&#160;Quit&#160;</text>
    </g>
    </g>
</svg>
